<svg width="278" height="60" fill="none" xmlns="http://www.w3.org/2000/svg"><path d="M34.73 8.14c-.169.02-.771.094-1.321.158-7.318.835-13.842 4.684-17.639 10.405-3.394 5.108-4.631 11.569-3.457 17.977 1.914 10.395 10.109 17.797 21.212 19.15 1.681.212 5.203.233 6.905.053 5.023-.54 8.851-2.062 12.393-4.938 1.079-.878 2.665-2.411 3.458-3.373 2.644-3.173 1.713-8.016-1.914-9.92-1.977-1.046-4.007-1.057-6.048-.063-.74.37-1.1.645-2.168 1.681-2.2 2.136-3.902 3.205-6.038 3.776-.941.253-1.237.275-2.95.285-2.274.01-3.173-.18-4.865-.994-2.284-1.11-3.88-2.993-4.748-5.604-.55-1.64-.73-2.845-.73-4.759 0-2.358.381-4.177 1.217-5.869 1.724-3.468 4.843-5.287 9.02-5.266 3.49.021 6.598 1.64 8.819 4.59 2.485 3.31 7.17 3.658 10.056.74 1.396-1.396 1.957-2.781 1.946-4.77-.021-2.241-.656-3.457-3.33-6.28-3.12-3.29-6.78-5.425-10.914-6.345-2.146-.487-3.257-.603-5.995-.645-1.428-.021-2.729-.01-2.909.01ZM129.002 8.194c-10.818 1.121-19.256 8.058-21.731 17.85-.846 3.363-.972 7.106-.37 10.458 1.481 8.1 6.81 14.498 14.688 17.628 6.482 2.57 14.53 2.527 20.938-.117 7.73-3.193 12.943-9.622 14.328-17.648.582-3.331.423-7.085-.423-10.458-.719-2.845-2.147-5.806-3.965-8.227-.91-1.216-3.321-3.596-4.59-4.537-3.764-2.791-8.205-4.452-13.26-4.96-1.28-.126-4.325-.116-5.615.011Zm5.234 12.626c4.135.793 6.979 3.892 7.815 8.523.497 2.77.19 6.038-.793 8.365-1.037 2.432-2.877 4.303-5.139 5.234-1.354.55-2.295.709-4.209.709-1.544 0-1.935-.032-2.749-.244-4.082-1.057-6.705-4.092-7.519-8.713-.233-1.3-.233-3.817 0-5.14.931-5.18 4.103-8.321 8.999-8.892.909-.106 2.601-.032 3.595.158ZM186.844 8.235c-6.017.75-10.944 2.982-14.836 6.714-5.763 5.52-8.185 13.747-6.514 22.133 1.037 5.202 3.754 9.834 7.73 13.154 1.851 1.544 4.463 3.067 6.8 3.976 3.574 1.386 7.994 2.041 12.054 1.766 5.541-.36 9.348-1.67 13.219-4.536 1.29-.952 4.007-3.638 4.547-4.484 1.099-1.755 1.353-3.849.687-5.752-.952-2.707-3.701-4.526-6.556-4.325-1.883.127-2.824.592-4.642 2.326-2.75 2.612-4.579 3.638-7.233 4.04-2.136.328-4.695.031-6.461-.751-2.866-1.269-4.854-4.071-5.52-7.772-.222-1.237-.254-4.03-.053-5.235.698-4.272 3.278-7.307 7.032-8.29 4.42-1.163 8.935.391 11.695 4.018.836 1.09 1.555 1.713 2.58 2.21 1.957.973 3.987.973 5.933.01 2.294-1.141 3.658-3.32 3.68-5.879.01-1.755-.487-3.077-1.692-4.557-3.553-4.346-7.297-6.884-11.96-8.09-2.157-.56-3.691-.74-6.63-.782-1.882-.032-2.993 0-3.86.106ZM234.641 8.151c-3.384.317-5.679.888-7.889 1.946-3.923 1.872-6.249 4.748-7.243 8.978-.275 1.152-.392 4.473-.212 5.847.698 5.266 3.892 9.03 9.528 11.262 1.343.529 3.109 1.047 6.08 1.766 6.355 1.533 7.17 1.83 7.667 2.802.285.55.285 1.555.01 2.094-.592 1.153-1.871 1.586-5.002 1.681-4.367.138-7.095-.719-10.955-3.468-1.448-1.036-2.104-1.332-3.352-1.491-2.591-.349-5.202 1.322-6.112 3.913-.317.909-.317 2.685.011 3.637.232.656.803 1.64 1.258 2.147.761.856 3.278 2.686 4.949 3.595 4.79 2.612 11.442 3.68 18.294 2.95 7.476-.803 12.224-4.05 13.937-9.506.539-1.724.814-3.564.814-5.52 0-3.796-1.184-6.736-3.68-9.147-2.654-2.559-6.101-4.113-12.002-5.435-5.329-1.185-6.461-1.512-7.455-2.147-.856-.56-1.121-1.057-1.131-2.083 0-.634.042-.804.296-1.184.518-.793 1.427-1.195 3.14-1.407 3.469-.423 7.149.772 10.363 3.363 1.354 1.09 2.443 1.512 3.913 1.512 1.893 0 3.5-.835 4.61-2.39 1.217-1.702 1.386-3.785.476-5.7-.454-.962-1.163-1.786-2.548-2.96-3.426-2.908-7.434-4.505-12.573-5.023-.994-.095-4.304-.127-5.192-.032ZM72.08 8.818c-2.602.413-4.621 1.914-5.742 4.272-.72 1.513-.688.445-.656 19.553l.032 17.257.317.899c.793 2.273 2.644 4.029 5.023 4.78 1.004.306 2.844.338 3.912.053 2.052-.54 3.902-2.063 4.812-3.934.73-1.512.719-1.333.793-8.46.063-5.985.084-6.535.296-7.709.285-1.512.476-2.263.835-3.267 1.48-4.114 4.4-6.842 8.206-7.645 1.058-.223 1.988-.18 3.468.137 1.82.38 3.733.402 4.801.053 1.132-.38 2.126-1.015 3.067-1.967 1.438-1.46 2.104-3.088 2.104-5.14-.01-1.342-.201-2.167-.782-3.33-.814-1.628-1.819-2.59-3.648-3.5-1.82-.899-2.454-1.036-4.918-1.036-2.358 0-3.49.158-5.308.74-2.665.856-5.34 2.432-7.402 4.356-.38.36-.72.656-.762.656-.031 0-.063-.148-.063-.328 0-.951-.835-2.844-1.713-3.88-.962-1.132-2.38-2.02-3.807-2.39-.803-.201-2.115-.286-2.865-.17ZM260.082 10.662h.21V9.524c0-.305.008-.544.025-.718.016-.173.062-.322.136-.447a.856.856 0 0 1 .323-.316.952.952 0 0 1 1.128.15c.13.12.213.267.248.44s.053.42.053.739v1.29h.7c.271 0 .478.064.62.19.143.128.214.291.214.49 0 .254-.101.432-.305.534-.203.102-.494.153-.872.153h-.357v3.482c0 .296.01.524.031.683.021.16.077.29.168.389.092.1.24.149.445.149.112 0 .264-.02.456-.06.191-.038.341-.058.448-.058a.58.58 0 0 1 .417.184.613.613 0 0 1 .186.454c0 .305-.168.539-.505.7-.336.162-.819.243-1.45.243-.598 0-1.051-.099-1.359-.298a1.38 1.38 0 0 1-.606-.825c-.096-.352-.144-.821-.144-1.408v-3.635h-.252c-.276 0-.486-.065-.631-.195a.634.634 0 0 1-.217-.492c0-.199.076-.362.228-.49.152-.126.372-.19.662-.19ZM271.411 14.485v2.518c0 .398-.091.696-.274.895-.182.199-.422.298-.721.298-.29 0-.524-.1-.704-.298-.18-.199-.27-.497-.27-.895v-3.018c0-.476-.016-.846-.049-1.11a1.197 1.197 0 0 0-.266-.648c-.145-.169-.374-.253-.687-.253-.626 0-1.038.212-1.236.638-.199.425-.298 1.036-.298 1.831v2.56c0 .393-.09.69-.27.891a.908.908 0 0 1-.711.302.92.92 0 0 1-.711-.302c-.185-.2-.277-.498-.277-.891v-5.418c0-.356.083-.626.249-.811a.837.837 0 0 1 .655-.278c.261 0 .48.087.655.26.175.174.263.413.263.718v.18c.331-.393.686-.681 1.065-.867a2.829 2.829 0 0 1 1.261-.277c.481 0 .894.095 1.24.284.345.19.63.477.855.86.322-.388.667-.676 1.036-.863a2.672 2.672 0 0 1 1.227-.281c.523 0 .973.102 1.352.305.378.204.661.495.847.874.164.342.246.881.246 1.617v3.697c0 .398-.091.696-.274.895-.182.199-.422.298-.721.298a.92.92 0 0 1-.711-.302c-.185-.2-.277-.498-.277-.891v-3.184c0-.407-.018-.733-.053-.978a1.117 1.117 0 0 0-.283-.618c-.155-.166-.388-.25-.701-.25a1.29 1.29 0 0 0-.718.223 1.508 1.508 0 0 0-.529.596c-.14.32-.21.884-.21 1.693Z" fill="#75B709"/></svg>