<svg width="91" height="32" viewBox="0 0 91 32" fill="none" xmlns="http://www.w3.org/2000/svg">
<g clip-path="url(#clip0_22972_183377)">
<path d="M13.104 12.633C13.104 14.18 11.83 15.454 10.283 15.454C8.736 15.454 7.462 14.18 7.462 12.633C7.462 11.086 8.736 9.81198 10.283 9.81198C11.83 9.81198 13.104 11.086 13.104 12.633ZM10.283 16.546C8.736 16.546 7.462 17.82 7.462 19.367C7.462 20.914 8.736 22.188 10.283 22.188C11.83 22.188 13.104 20.914 13.104 19.367C13.104 17.82 11.83 16.546 10.283 16.546ZM27.3 16C27.3 23.553 21.203 29.65 13.65 29.65C6.097 29.65 0 23.553 0 16C0 8.44698 6.097 2.34998 13.65 2.34998C21.203 2.34998 27.3 8.44698 27.3 16ZM23.66 16C23.66 10.449 19.201 5.98998 13.65 5.98998C8.099 5.98998 3.64 10.449 3.64 16C3.64 21.551 8.099 26.01 13.65 26.01C19.201 26.01 23.66 21.551 23.66 16ZM17.017 16.546C15.47 16.546 14.196 17.82 14.196 19.367C14.196 20.914 15.47 22.188 17.017 22.188C18.564 22.188 19.838 20.914 19.838 19.367C19.838 17.82 18.564 16.546 17.017 16.546ZM17.017 9.81198C15.47 9.81198 14.196 11.086 14.196 12.633C14.196 14.18 15.47 15.454 17.017 15.454C18.564 15.454 19.838 14.18 19.838 12.633C19.838 11.086 18.564 9.81198 17.017 9.81198ZM63.973 7.71898C64.064 7.71898 64.155 7.80998 64.246 7.90098V10.813C64.246 10.995 64.064 11.086 63.973 11.086H59.15C58.968 11.086 58.877 10.904 58.877 10.813V7.99198C58.877 7.80998 59.059 7.71898 59.15 7.71898H63.973ZM63.882 11.814H54.6C54.509 11.814 54.327 11.905 54.327 12.087L53.144 16.637L53.053 16.91L51.597 12.087C51.597 11.996 51.415 11.814 51.324 11.814H47.684C47.593 11.814 47.411 11.905 47.411 12.087L46.046 16.637L45.955 16.91L45.864 16.637L45.318 14.362L44.772 12.087C44.772 11.996 44.59 11.814 44.499 11.814H37.219V7.90098C37.219 7.80998 37.037 7.62798 36.855 7.71898L32.305 9.17498C32.123 9.17498 32.032 9.26598 32.032 9.44798V11.905H30.849C30.758 11.905 30.576 11.996 30.576 12.178V15.636C30.576 15.727 30.667 15.909 30.849 15.909H32.032V20.186C32.032 23.189 33.67 24.554 36.673 24.554C37.947 24.554 39.13 24.281 39.949 23.826V20.186C39.949 20.004 39.767 19.913 39.676 20.004C39.221 20.186 38.766 20.277 38.402 20.277C37.583 20.277 37.128 19.913 37.128 19.003V15.909H39.767C39.858 15.909 40.04 15.818 40.04 15.636V12.724L43.498 24.19C43.498 24.281 43.68 24.463 43.771 24.463H47.593C47.684 24.463 47.866 24.372 47.866 24.19L49.504 19.094L50.323 21.733L51.051 24.19C51.051 24.281 51.233 24.463 51.324 24.463H55.146C55.237 24.463 55.419 24.372 55.419 24.19L58.877 12.724V24.19C58.877 24.281 58.968 24.463 59.15 24.463H63.791C63.882 24.463 64.064 24.372 64.064 24.19V12.087C64.064 11.996 63.973 11.814 63.882 11.814ZM69.979 7.71898H65.338C65.247 7.71898 65.065 7.80998 65.065 7.99198V24.099C65.065 24.19 65.156 24.372 65.338 24.372H69.979C70.07 24.372 70.252 24.281 70.252 24.099V7.90098C70.252 7.80998 70.161 7.71898 69.979 7.71898ZM76.167 7.71898H71.344C71.253 7.71898 71.071 7.80998 71.071 7.99198V10.813C71.071 10.904 71.162 11.086 71.344 11.086H76.167C76.258 11.086 76.44 10.995 76.44 10.813V7.90098C76.44 7.80998 76.349 7.71898 76.167 7.71898ZM76.076 11.814H71.435C71.344 11.814 71.162 11.905 71.162 12.087V24.008C71.162 24.099 71.253 24.281 71.435 24.281H76.076C76.167 24.281 76.349 24.19 76.349 24.008V12.087C76.349 11.996 76.258 11.814 76.076 11.814ZM90.727 18.002C90.727 21.46 87.815 24.463 83.72 24.463C79.716 24.463 76.804 21.46 76.804 18.002C76.804 14.544 79.716 11.541 83.811 11.541C87.815 11.541 90.727 14.544 90.727 18.002ZM85.813 18.093C85.813 16.819 84.903 15.818 83.811 15.909C82.628 15.909 81.809 16.91 81.809 18.093C81.809 19.276 82.719 20.277 83.811 20.277C84.994 20.277 85.813 19.276 85.813 18.093Z" fill="#F22F46"/>
</g>
<defs>
<clipPath id="clip0_22972_183377">
<rect width="91" height="27.3" fill="white" transform="translate(0 2.34998)"/>
</clipPath>
</defs>
</svg>
