<svg width="123" height="28" viewBox="0 0 123 28" fill="none" xmlns="http://www.w3.org/2000/svg">
<path fill-rule="evenodd" clip-rule="evenodd" d="M0.384765 1.62393C0.596302 2.09839 2.57744 6.55027 4.78725 11.5169C6.99697 16.4836 8.85284 20.5477 8.91123 20.5484C9.00006 20.5495 11.8495 14.324 11.9776 13.849C12.0006 13.764 10.7102 10.7961 9.11007 7.2538L6.20075 0.813205L3.10037 0.787218L0 0.76123L0.384765 1.62393ZM24.7753 0.837814C24.7508 0.87837 22.7724 5.31913 20.3787 10.7061C15.5066 21.6709 14.8803 23.0014 13.8782 24.5153C12.7358 26.2413 11.8396 27.0462 10.5622 27.4933L9.88826 27.7291L13.2913 27.7078L16.6943 27.6863L17.4371 27.3193C18.3756 26.8553 19.4058 25.8079 20.2263 24.4833C21.1387 23.0102 22.0556 21.0453 26.7126 10.583L31.0834 0.763987H27.9516C26.2291 0.763987 24.7997 0.797258 24.7753 0.837814ZM62.2778 7.54812C60.7696 7.79027 59.7008 8.31208 58.7343 9.27824C57.9714 10.0406 57.5426 10.7664 57.1926 11.8873C56.9901 12.536 56.9621 12.8226 56.9621 14.2498C56.9621 15.6769 56.9901 15.9635 57.1926 16.6122C57.5407 17.7268 57.9726 18.4586 58.7348 19.2247C59.97 20.4664 61.3426 20.9821 63.4126 20.9821C65.4766 20.9821 66.8426 20.4696 68.0991 19.2238C69.3506 17.983 69.9123 16.4419 69.9123 14.2498C69.9123 12.0576 69.3506 10.5166 68.0991 9.27578C67.3106 8.4939 66.5596 8.05891 65.48 7.75838C64.6576 7.52952 63.051 7.42399 62.2778 7.54812ZM104.138 7.56052C100.811 8.08253 98.7687 10.6647 98.7687 14.3482C98.7687 16.7991 99.7249 18.8043 101.453 19.9774C103.266 21.2078 105.991 21.3557 107.76 20.3195C107.997 20.1804 108.445 19.7932 108.754 19.4591L109.317 18.8517L109.297 19.7745L109.276 20.6973H110.3H111.324V17.2029V13.7084H108.189H105.054V14.6927L105.053 15.6771L106.983 15.7038L108.913 15.7304L108.854 15.9991C108.635 16.9803 107.823 17.9331 106.763 18.4535C106.253 18.7041 106.106 18.7286 105.119 18.7286C104.132 18.7286 103.981 18.7034 103.417 18.4431C101.997 17.7877 101.129 16.2362 101.132 14.3594C101.134 12.3526 101.944 10.7941 103.334 10.1174C105.209 9.2053 107.629 9.7399 108.426 11.2424L108.664 11.6904H109.865H111.067L110.917 11.1736C110.451 9.56882 108.913 8.17378 107.089 7.70316C106.341 7.51032 104.902 7.44073 104.138 7.56052ZM91.0346 7.78634C90.6305 7.96962 90.1617 8.52441 89.7905 9.25835C89.5033 9.82623 84.7829 20.6178 84.7829 20.7065C84.7829 20.7285 85.3301 20.7466 85.9988 20.7466H87.2146L87.8857 19.1703L88.5566 17.5939L91.7618 17.6199L94.9669 17.6458L95.6219 19.1716L96.2769 20.6973L97.4728 20.725C98.2367 20.7426 98.6687 20.7164 98.6687 20.6525C98.6687 20.4797 94.0475 9.90961 93.6146 9.09219C93.0719 8.06727 92.6572 7.72727 91.8967 7.68377C91.5604 7.66447 91.2117 7.70601 91.0346 7.78634ZM42.0695 7.92523C42.1356 8.15163 46.6543 18.0622 47.1282 19.0202C47.8334 20.4458 48.4182 20.8946 49.4823 20.8269C50.198 20.7813 50.6164 20.5176 51.1097 19.801C51.3906 19.393 56.6174 8.03646 56.6174 7.83428C56.6174 7.78644 56.0304 7.75966 55.3129 7.77472L54.0085 7.80218L51.6737 12.9161L49.339 18.0299L48.9569 17.198C48.7467 16.7405 47.7178 14.4836 46.6705 12.1826C45.6231 9.88165 44.724 7.94374 44.6724 7.87601C44.6059 7.7887 44.2071 7.75297 43.299 7.75297C42.1268 7.75297 42.0235 7.76744 42.0695 7.92523ZM71.9804 14.2498V20.7466H73.1612H74.3421L74.3676 16.0776L74.3932 11.4088L77.5446 16.0751L80.696 20.7414L82.0501 20.744L83.4042 20.7466V14.2466V7.74676L82.2471 7.77443L81.0899 7.80218V12.5025C81.0899 15.0878 81.0813 17.2029 81.0708 17.2029C81.0603 17.2029 79.6235 15.0766 77.8781 12.4779L74.7044 7.75297H73.3424H71.9804V14.2498ZM113.638 14.2498V20.7466H118.319H123L122.972 19.6392L122.944 18.5317L119.473 18.5059L116.001 18.48V16.8078V15.1357H119.202H122.403V14.0529V12.9701H119.202H116.001V11.4948V10.0196L119.473 9.99367L122.944 9.96778L122.972 8.86038L123 7.75297H118.319H113.638V14.2498ZM62.5446 9.72819C61.3069 9.94613 60.3471 10.6479 59.8202 11.7203C59.3707 12.6349 59.2421 13.3633 59.3039 14.6435C59.4324 17.3092 60.9193 18.8187 63.4126 18.8146C65.3385 18.8116 66.6936 17.9014 67.2776 16.2185C67.4653 15.6773 67.4996 15.3738 67.4996 14.2498C67.4996 12.6992 67.3088 11.9734 66.6867 11.1573C65.8066 10.0026 64.1777 9.44066 62.5446 9.72819ZM90.6532 12.682C90.0712 14.042 89.5712 15.2169 89.542 15.2929C89.4974 15.4089 89.8449 15.431 91.7153 15.431C92.9422 15.431 93.9417 15.3918 93.9417 15.3438C93.9417 15.2194 91.8802 10.378 91.7879 10.2857C91.7457 10.2436 91.2351 11.3219 90.6532 12.682Z" fill="black"/>
</svg>
